#!OML:ASF E:\emotionWalksFemale\Project 1\Capture day 1\Session 1\Female1.ASF
:FULLY-SPECIFIED
:DEGREES
1731
root 9.41677 15.393 -23.1193 4.09381 8.33294 -3.23785
lowerback 11.4034 0.387134 0.858151
upperback 3.24824 0.641189 0.612028
thorax -2.998 0.318933 0.0637448
lowerneck -3.33691 -0.773239 -3.62379
upperneck 43.8166 1.34344 -3.43794
head 16.3792 -0.356055 -0.660546
rclavicle 4.57205e-015 -5.96354e-016
rhumerus -30.7599 18.7452 -92.3718
rradius 40.729
rwrist 7.33062
rhand -10.5044 -51.4849
rfingers 7.12502
rthumb 15.4979 -80.8838
lclavicle 4.57205e-015 -5.96354e-016
lhumerus -30.3418 4.30699 86.2472
lradius 47.0075
lwrist -4.90855
lhand -10.0542 -33.8884
lfingers 7.12502
lthumb 15.9314 -4.52368
rfemur -16.0224 13.8506 31.3601
rtibia 26.3018
rfoot -13.8257 -22.5263
rtoes 12.7918
lfemur -33.4765 -3.33017 -17.548
ltibia 70.6747
lfoot -14.0496 -1.73889
ltoes -27
1732
root 9.4222 15.3783 -23.0381 4.0227 8.28804 -3.34284
lowerback 11.5715 0.380667 0.961743
upperback 3.19671 0.645974 0.579991
thorax -3.14219 0.320249 -0.0301077
lowerneck -3.27707 -0.757724 -3.50445
upperneck 43.7784 1.3717 -3.52445
head 16.3437 -0.335361 -0.716186
rclavicle 6.06293e-015 1.61016e-014
rhumerus -30.8798 18.7841 -92.5647
rradius 40.835
rwrist 7.2595
rhand -10.4545 -51.3837
rfingers 7.12502
rthumb 15.5459 -80.7789
lclavicle 6.06293e-015 1.61016e-014
lhumerus -30.3341 4.39832 86.1993
lradius 46.7382
lwrist -5.03196
lhand -10.1703 -33.9353
lfingers 7.12502
lthumb 15.8196 -4.56167
rfemur -15.6957 13.7676 31.6289
rtibia 26.6314
rfoot -14.5859 -22.3579
rtoes 13.9167
lfemur -34.1748 -3.65993 -17.5278
ltibia 69.9688
lfoot -14.3265 -1.39243
ltoes -26.7963
1733
root 9.42806 15.3649 -22.9545 4.03506 8.18295 -3.44102
lowerback 11.9108 0.33497 1.14948
upperback 2.96171 0.610252 0.470091
thorax -3.57006 0.298518 -0.248811
lowerneck -3.4236 -0.695874 -3.4522
upperneck 44.0193 1.44665 -3.45227
head 16.5158 -0.295718 -0.690633
rclavicle 4.37326e-015 1.39149e-015
rhumerus -31.2967 18.9388 -93.0211
rradius 40.8811
rwrist 7.22514
rhand -10.7594 -50.9585
rfingers 7.12502
rthumb 15.2523 -80.3762
lclavicle 4.37326e-015 1.39149e-015
lhumerus -30.9854 4.33299 86.0274
lradius 47.0823
lwrist -4.87153
lhand -10.3326 -33.7605
lfingers 7.12502
lthumb 15.6634 -4.37452
rfemur -15.4851 13.8307 31.8659
rtibia 26.9425
rfoot -15.269 -22.314
rtoes 15.1772
lfemur -34.9432 -4.03211 -17.465
ltibia 69.1466
lfoot -14.5078 -1.12565
ltoes -24.7904
1734
root 9.43032 15.3517 -22.8703 4.05422 8.02385 -3.54192
lowerback 11.5296 0.346725 1.07367
upperback 3.08634 0.609897 0.476142
thorax -3.232 0.300964 -0.196171
lowerneck -3.4106 -0.65021 -3.4938
upperneck 43.9605 1.48252 -3.3715
head 16.4775 -0.279023 -0.641176
rclavicle 4.35338e-014 -4.37326e-015
rhumerus -31.216 19.2241 -93.2301
rradius 40.9058
rwrist 7.01746
rhand -10.8698 -50.8351
rfingers 7.12502
rthumb 15.146 -80.2609
lclavicle 4.35338e-014 -4.37326e-015
lhumerus -30.7622 4.49556 85.9155
lradius 46.8272
lwrist -4.8728
lhand -10.3656 -33.9807
lfingers 7.12502
lthumb 15.6315 -4.59224
rfemur -15.2989 14.0348 32.1203
rtibia 27.2204
rfoot -15.5435 -22.4714
rtoes 15.8397
lfemur -35.6186 -4.36519 -17.3705
ltibia 68.2245
lfoot -15.2201 -0.798758
ltoes -24.8034
1735
root 9.43163 15.3357 -22.7868 4.06308 7.88647 -3.57897
lowerback 11.4345 0.310282 0.887312
upperback 3.12328 0.54041 0.525898
thorax -3.14444 0.267746 -0.0289551
lowerneck -3.43987 -0.539164 -3.68029
upperneck 43.8565 1.69324 -3.40851
head 16.4297 -0.227065 -0.59353
rclavicle 4.27387e-015 -1.70955e-014
rhumerus -31.3226 19.5129 -93.3993
rradius 41.1313
rwrist 7.02594
rhand -10.7792 -51.1282
rfingers 7.12502
rthumb 15.2332 -80.5474
lclavicle 4.27387e-015 -1.70955e-014
lhumerus -30.8035 4.49687 85.7226
lradius 46.806
lwrist -4.45419
lhand -10.2609 -34.0397
lfingers 7.12502
lthumb 15.7324 -4.65917
rfemur -15.0513 14.2251 32.307
rtibia 27.4252
rfoot -15.8015 -22.6146
rtoes 16.4751
lfemur -36.2207 -4.6622 -17.3566
ltibia 67.2026
lfoot -15.9906 -0.443085
ltoes -26.1136
1736
root 9.43541 15.322 -22.7018 4.08627 7.73145 -3.6477
lowerback 11.3878 0.36037 0.906183
upperback 3.09626 0.605507 0.456674
thorax -3.14557 0.299763 -0.120276
lowerneck -3.40294 -0.564149 -3.59276
upperneck 43.7979 1.6641 -3.48821
head 16.3882 -0.234643 -0.648018
rclavicle -1.04362e-014 2.78299e-014
rhumerus -31.5718 19.2748 -93.6157
rradius 41.3525
rwrist 7.36821
rhand -10.8795 -51.1273
rfingers 7.12502
rthumb 15.1366 -80.5538
lclavicle -1.04362e-014 2.78299e-014
lhumerus -30.7736 4.88151 85.7013
lradius 46.5268
lwrist -4.79083
lhand -10.2074 -33.6834
lfingers 7.12502
lthumb 15.784 -4.30689
rfemur -14.7535 14.3666 32.5089
rtibia 27.5427
rfoot -16.1508 -22.6728
rtoes 16.8971
lfemur -36.8513 -4.98964 -17.3143
ltibia 66.0589
lfoot -16.3887 0.0210592
ltoes -27.0583
1737
root 9.44225 15.3105 -22.6144 4.03396 7.52516 -3.77841
lowerback 11.3426 0.385464 0.959166
upperback 3.10473 0.643729 0.454556
thorax -3.11103 0.318579 -0.157172
lowerneck -3.34633 -0.561583 -3.61748
upperneck 43.7482 1.67318 -3.51396
head 16.3471 -0.238372 -0.653045
rclavicle 1.2424e-014 -1.47101e-014
rhumerus -31.7527 19.3962 -93.805
rradius 41.3396
rwrist 7.61243
rhand -11.1283 -50.789
rfingers 7.12502
rthumb 14.8969 -80.2334
lclavicle 1.2424e-014 -1.47101e-014
lhumerus -30.8661 5.00835 85.5107
lradius 46.2903
lwrist -4.77134
lhand -10.1269 -33.6052
lfingers 7.12502
lthumb 15.8614 -4.23485
rfemur -14.3411 14.4003 32.7939
rtibia 27.6053
rfoot -16.5431 -22.5994
rtoes 16.8307
lfemur -37.3077 -5.36604 -17.197
ltibia 64.7858
lfoot -16.6544 0.553311
ltoes -27.836
1738
root 9.4499 15.3071 -22.5241 3.96179 7.36858 -3.79766
lowerback 11.3416 0.440789 0.934652
upperback 3.12848 0.71172 0.400968
thorax -3.08471 0.352519 -0.20821
lowerneck -3.37814 -0.609221 -3.68383
upperneck 43.74 1.57422 -3.41384
head 16.3474 -0.279608 -0.609977
rclavicle 2.98177e-015 -3.57812e-015
rhumerus -31.7743 19.2857 -93.9109
rradius 41.2566
rwrist 7.76067
rhand -10.6815 -50.864
rfingers 7.12502
rthumb 15.3273 -80.276
lclavicle 2.98177e-015 -3.57812e-015
lhumerus -30.7555 5.46605 85.4665
lradius 45.7418
lwrist -5.28895
lhand -10.1991 -33.7946
lfingers 7.12502
lthumb 15.7919 -4.41871
rfemur -13.8508 14.4268 32.9656
rtibia 27.5966
rfoot -16.7726 -22.6073
rtoes 16.3312
lfemur -37.5847 -5.73152 -17.1994
ltibia 63.3581
lfoot -16.9281 1.12249
ltoes -29.1062
1739
root 9.45603 15.3052 -22.4334 4.01409 7.23205 -3.76043
lowerback 11.1753 0.468287 0.784081
upperback 3.09766 0.727821 0.364275
thorax -3.02686 0.361115 -0.162267
lowerneck -3.39818 -0.62463 -3.83946
upperneck 43.834 1.53485 -3.28496
head 16.4041 -0.309257 -0.532202
rclavicle -3.29983e-014 -1.07344e-014
rhumerus -31.8826 19.2215 -94.0485
rradius 41.1551
rwrist 7.97782
rhand -10.1078 -50.9574
rfingers 7.12502
rthumb 15.8798 -80.3263
lclavicle -3.29983e-014 -1.07344e-014
lhumerus -30.7955 5.85192 85.3589
lradius 45.346
lwrist -5.59706
lhand -10.1293 -33.4319
lfingers 7.12502
lthumb 15.8592 -4.06134
rfemur -13.4486 14.5034 33.0451
rtibia 27.5006
rfoot -16.8381 -22.7227
rtoes 15.5558
lfemur -37.9472 -6.06709 -17.2347
ltibia 61.8125
lfoot -17.1715 1.74958
ltoes -30.1778
